<svg xmlns="http://www.w3.org/2000/svg" viewBox="0 0 100 100" fill="none">
  <circle cx="50" cy="50" r="8" stroke="#e0e0e0" stroke-width="2.5" fill="#0a0a0a"/>
  
  <circle cx="50" cy="50" r="46" stroke="#e0e0e0" stroke-width="1.5" stroke-dasharray="3 3"/> <circle cx="50" cy="50" r="42" stroke="#e0e0e0" stroke-width="3" fill="none"/> <g stroke="#e0e0e0" stroke-width="2.5" stroke-linecap="round">
    <path d="M50 42V14M50 14L45 20M50 14L55 20"/>
    <path d="M50 58V86M50 86L45 80M50 86L55 80"/>
    <path d="M58 50H86M86 50L80 45M86 50L80 55"/>
    <path d="M42 50H14M14 50L20 45M14 50L20 55"/>
    <path d="M56 44L77 23M77 23L72 20M77 23L80 28"/>
    <path d="M56 56L77 77M77 77L72 80M77 77L80 72"/>
    <path d="M44 56L23 77M23 77L28 80M23 77L20 72"/>
    <path d="M44 44L23 23M23 23L28 20M23 23L20 28"/>
  </g>
  
  <path d="M50 14L86 50L50 86L14 50Z" stroke="#333333" stroke-width="1" stroke-dasharray="2 2"/> <path d="M50 46V54M46 50H54" stroke="#888888" stroke-width="1.5"/> </svg>
